<svg xmlns="http://www.w3.org/2000/svg" xmlns:xlink="http://www.w3.org/1999/xlink" width="601" height="71" viewBox="0 0 601 71">
    <defs>
        <path id="prefix__a" d="M0.439 0.647L6.46 0.647 6.46 3.539 0.439 3.539z"/>
        <path id="prefix__c" d="M0.461 0.647L20.076 0.647 20.076 3.539 0.461 3.539z"/>
        <path id="prefix__e" d="M0.773 0.647L20.389 0.647 20.389 3.539 0.773 3.539z"/>
        <path id="prefix__g" d="M0.389 0.647L19.964 0.647 19.964 3.539 0.389 3.539z"/>
        <path id="prefix__i" d="M0.584 0.647L20.157 0.647 20.157 3.539 0.584 3.539z"/>
        <path id="prefix__k" d="M0.158 0.647L19.774 0.647 19.774 3.539 0.158 3.539z"/>
        <path id="prefix__m" d="M0.267 0.647L19.883 0.647 19.883 3.539 0.267 3.539z"/>
        <path id="prefix__o" d="M0.925 0.647L20.541 0.647 20.541 3.539 0.925 3.539z"/>
        <path id="prefix__q" d="M0.119 0.647L19.693 0.647 19.693 3.539 0.119 3.539z"/>
        <path id="prefix__s" d="M0.735 0.647L20.309 0.647 20.309 3.539 0.735 3.539z"/>
        <path id="prefix__u" d="M0.703 0.647L20.319 0.647 20.319 3.539 0.703 3.539z"/>
        <path id="prefix__w" d="M0.319 0.647L19.935 0.647 19.935 3.539 0.319 3.539z"/>
        <path id="prefix__y" d="M0.428 0.647L20.044 0.647 20.044 3.539 0.428 3.539z"/>
        <path id="prefix__A" d="M0.086 0.647L19.66 0.647 19.66 3.539 0.086 3.539z"/>
        <path id="prefix__C" d="M0.28 0.647L19.854 0.647 19.854 3.539 0.28 3.539z"/>
        <path id="prefix__E" d="M0.854 0.647L20.47 0.647 20.47 3.539 0.854 3.539z"/>
        <path id="prefix__G" d="M0.963 0.647L20.579 0.647 20.579 3.539 0.963 3.539z"/>
        <path id="prefix__I" d="M0.622 0.647L20.238 0.647 20.238 3.539 0.622 3.539z"/>
        <path id="prefix__K" d="M0.589 0.647L20.205 0.647 20.205 3.539 0.589 3.539z"/>
        <path id="prefix__M" d="M0.248 0.647L19.822 0.647 19.822 3.539 0.248 3.539z"/>
        <path id="prefix__O" d="M0.441 0.647L20.015 0.647 20.015 3.539 0.441 3.539z"/>
        <path id="prefix__Q" d="M0.015 0.647L19.631 0.647 19.631 3.539 0.015 3.539z"/>
        <path id="prefix__S" d="M0.124 0.647L19.741 0.647 19.741 3.539 0.124 3.539z"/>
        <path id="prefix__U" d="M0.783 0.647L20.399 0.647 20.399 3.539 0.783 3.539z"/>
        <path id="prefix__W" d="M0.977 0.647L20.551 0.647 20.551 3.539 0.977 3.539z"/>
        <path id="prefix__Y" d="M0.551 0.647L20.125 0.647 20.125 3.539 0.551 3.539z"/>
        <path id="prefix__aa" d="M0.287 0.647L19.903 0.647 19.903 3.539 0.287 3.539z"/>
        <path id="prefix__ac" d="M0.945 0.647L6.924 0.647 6.924 3.539 0.945 3.539z"/>
        <path id="prefix__ae" d="M0.138 0.647L19.712 0.647 19.712 3.539 0.138 3.539z"/>
        <path id="prefix__ag" d="M0.67 0.647L20.287 0.647 20.287 3.539 0.67 3.539z"/>
        <path id="prefix__ai" d="M0.822 0.647L20.438 0.647 20.438 3.539 0.822 3.539z"/>
        <path id="prefix__ak" d="M0.48 0.647L20.096 0.647 20.096 3.539 0.48 3.539z"/>
        <path id="prefix__am" d="M0.439 0.155L6.46 0.155 6.46 19.771 0.439 19.771z"/>
        <path id="prefix__ao" d="M0.439 0.539L6.46 0.539 6.46 20.155 0.439 20.155z"/>
        <path id="prefix__aq" d="M0.439 0.387L6.46 0.387 6.46 8.605 0.439 8.605z"/>
        <path id="prefix__as" d="M0.461 0.387L20.076 0.387 20.076 8.605 0.461 8.605z"/>
        <path id="prefix__au" d="M0.439 0.771L6.46 0.771 6.46 20.387 0.439 20.387z"/>
        <path id="prefix__aw" d="M0.773 0.387L20.389 0.387 20.389 8.605 0.773 8.605z"/>
        <path id="prefix__ay" d="M0.389 0.387L19.964 0.387 19.964 8.605 0.389 8.605z"/>
        <path id="prefix__aA" d="M0.584 0.387L20.157 0.387 20.157 8.605 0.584 8.605z"/>
        <path id="prefix__aC" d="M0.158 0.387L19.773 0.387 19.773 8.605 0.158 8.605z"/>
        <path id="prefix__aE" d="M0.267 0.387L19.883 0.387 19.883 8.605 0.267 8.605z"/>
        <path id="prefix__aG" d="M0.925 0.387L20.541 0.387 20.541 8.605 0.925 8.605z"/>
        <path id="prefix__aI" d="M0.119 0.387L19.693 0.387 19.693 8.605 0.119 8.605z"/>
        <path id="prefix__aK" d="M0.735 0.387L20.309 0.387 20.309 8.605 0.735 8.605z"/>
        <path id="prefix__aM" d="M0.703 0.387L20.319 0.387 20.319 8.605 0.703 8.605z"/>
        <path id="prefix__aO" d="M0.319 0.387L19.935 0.387 19.935 8.605 0.319 8.605z"/>
        <path id="prefix__aQ" d="M0.428 0.387L20.044 0.387 20.044 8.605 0.428 8.605z"/>
        <path id="prefix__aS" d="M0.086 0.387L19.66 0.387 19.66 8.605 0.086 8.605z"/>
        <path id="prefix__aU" d="M0.28 0.387L19.854 0.387 19.854 8.605 0.28 8.605z"/>
        <path id="prefix__aW" d="M0.854 0.387L20.47 0.387 20.47 8.605 0.854 8.605z"/>
        <path id="prefix__aY" d="M0.963 0.387L20.579 0.387 20.579 8.605 0.963 8.605z"/>
        <path id="prefix__ba" d="M0.622 0.387L20.238 0.387 20.238 8.605 0.622 8.605z"/>
        <path id="prefix__bc" d="M0.589 0.387L20.205 0.387 20.205 8.605 0.589 8.605z"/>
        <path id="prefix__be" d="M0.248 0.387L19.822 0.387 19.822 8.605 0.248 8.605z"/>
        <path id="prefix__bg" d="M0.441 0.387L20.015 0.387 20.015 8.605 0.441 8.605z"/>
        <path id="prefix__bi" d="M0.015 0.387L19.631 0.387 19.631 8.605 0.015 8.605z"/>
        <path id="prefix__bk" d="M0.124 0.387L19.741 0.387 19.741 8.605 0.124 8.605z"/>
        <path id="prefix__bm" d="M0.783 0.387L20.399 0.387 20.399 8.605 0.783 8.605z"/>
        <path id="prefix__bo" d="M0.977 0.387L20.551 0.387 20.551 8.605 0.977 8.605z"/>
        <path id="prefix__bq" d="M0.551 0.387L20.125 0.387 20.125 8.605 0.551 8.605z"/>
        <path id="prefix__bs" d="M0.945 0.155L6.924 0.155 6.924 19.771 0.945 19.771z"/>
        <path id="prefix__bu" d="M0.903 0.538L6.924 0.538 6.924 20.155 0.903 20.155z"/>
        <path id="prefix__bw" d="M0.287 0.387L19.903 0.387 19.903 8.605 0.287 8.605z"/>
        <path id="prefix__by" d="M0.945 0.387L6.924 0.387 6.924 8.605 0.945 8.605z"/>
        <path id="prefix__bA" d="M0.903 0.771L6.924 0.771 6.924 20.387 0.903 20.387z"/>
        <path id="prefix__bC" d="M0.138 0.387L19.712 0.387 19.712 8.605 0.138 8.605z"/>
        <path id="prefix__bE" d="M0.67 0.387L20.287 0.387 20.287 8.605 0.67 8.605z"/>
        <path id="prefix__bG" d="M0.822 0.387L20.438 0.387 20.438 8.605 0.822 8.605z"/>
        <path id="prefix__bI" d="M0.48 0.387L20.096 0.387 20.096 8.605 0.48 8.605z"/>
    </defs>
    <g fill="none" fill-rule="evenodd" transform="translate(0 -.04)">
        <path fill="#007DDC" d="M0.439 69.3L600.439 69.3 600.439 0.648 0.439 0.648z"/>
        <mask id="prefix__b" fill="#fff">
            <use xlink:href="#prefix__a"/>
        </mask>
        <path stroke="#0054A5" stroke-width=".21" d="M6.46-16.077C6.46-9.068 2.732-2.59-3.327.935-6.313 2.66-9.706 3.56-13.156 3.539-13.148-7.291-4.37-16.07 6.46-16.077z" mask="url(#prefix__b)"/>
        <g transform="translate(6)">
            <mask id="prefix__d" fill="#fff">
                <use xlink:href="#prefix__c"/>
            </mask>
            <path stroke="#0054A5" stroke-width=".21" d="M20.076 3.539c-3.445-.004-6.833-.902-9.829-2.604C4.19-2.588.46-9.068.46-16.077c10.83.008 19.608 8.786 19.616 19.616z" mask="url(#prefix__d)"/>
        </g>
        <g transform="translate(143)">
            <mask id="prefix__f" fill="#fff">
                <use xlink:href="#prefix__e"/>
            </mask>
            <path stroke="#0054A5" stroke-width=".21" d="M20.389-16.077c0 7.009-3.728 13.488-9.787 17.012C7.616 2.66 4.223 3.56.773 3.539.782-7.291 9.559-16.07 20.389-16.077z" mask="url(#prefix__f)"/>
        </g>
        <g transform="translate(163)">
            <mask id="prefix__h" fill="#fff">
                <use xlink:href="#prefix__g"/>
            </mask>
            <path stroke="#0054A5" stroke-width=".21" d="M19.963 3.539c-3.434 0-6.808-.897-9.787-2.604C4.104-2.575.371-9.063.39-16.077c10.788-.023 19.552 8.703 19.574 19.49v.126z" mask="url(#prefix__h)"/>
        </g>
        <g transform="translate(104)">
            <mask id="prefix__j" fill="#fff">
                <use xlink:href="#prefix__i"/>
            </mask>
            <path stroke="#0054A5" stroke-width=".21" d="M20.157-16.077c0 7.009-3.729 13.488-9.787 17.012C7.397 2.655 4.02 3.554.585 3.539c.008-10.814 8.76-19.585 19.573-19.616z" mask="url(#prefix__j)"/>
        </g>
        <g transform="translate(124)">
            <mask id="prefix__l" fill="#fff">
                <use xlink:href="#prefix__k"/>
            </mask>
            <path stroke="#0054A5" stroke-width=".21" d="M19.773 3.539c-3.446-.004-6.832-.902-9.828-2.604C3.885-2.588.158-9.068.158-16.077c10.83.008 19.607 8.786 19.616 19.616h-.001z" mask="url(#prefix__l)"/>
        </g>
        <g transform="translate(65)">
            <mask id="prefix__n" fill="#fff">
                <use xlink:href="#prefix__m"/>
            </mask>
            <path stroke="#0054A5" stroke-width=".21" d="M19.883-16.077c0 7.009-3.729 13.488-9.787 17.012-2.989 1.72-6.38 2.619-9.829 2.604.008-10.83 8.785-19.608 19.616-19.616z" mask="url(#prefix__n)"/>
        </g>
        <g transform="translate(84)">
            <mask id="prefix__p" fill="#fff">
                <use xlink:href="#prefix__o"/>
            </mask>
            <path stroke="#0054A5" stroke-width=".21" d="M20.541 3.539c-3.446-.004-6.833-.902-9.829-2.604C4.652-2.588.925-9.068.925-16.077c7.01 0 13.488 3.728 17.012 9.787 1.702 2.996 2.6 6.383 2.604 9.829z" mask="url(#prefix__p)"/>
        </g>
        <g transform="translate(26)">
            <mask id="prefix__r" fill="#fff">
                <use xlink:href="#prefix__q"/>
            </mask>
            <path stroke="#0054A5" stroke-width=".21" d="M19.693-16.077c0 7.009-3.73 13.488-9.787 17.012C6.932 2.655 3.554 3.554.119 3.539c.008-10.814 8.76-19.585 19.574-19.616z" mask="url(#prefix__r)"/>
        </g>
        <g transform="translate(45)">
            <mask id="prefix__t" fill="#fff">
                <use xlink:href="#prefix__s"/>
            </mask>
            <path stroke="#0054A5" stroke-width=".21" d="M20.309 3.539c-3.434 0-6.808-.897-9.787-2.604C4.462-2.588.735-9.068.735-16.077c7-.01 13.472 3.723 16.97 9.787 1.702 2.996 2.599 6.383 2.604 9.829z" mask="url(#prefix__t)"/>
        </g>
        <g transform="translate(300)">
            <mask id="prefix__v" fill="#fff">
                <use xlink:href="#prefix__u"/>
            </mask>
            <path stroke="#0054A5" stroke-width=".21" d="M20.319-16.077c0 7.009-3.73 13.488-9.787 17.012C7.545 2.66 4.152 3.56.702 3.539.712-7.291 9.489-16.07 20.32-16.077z" mask="url(#prefix__v)"/>
        </g>
        <g transform="translate(320)">
            <mask id="prefix__x" fill="#fff">
                <use xlink:href="#prefix__w"/>
            </mask>
            <path stroke="#0054A5" stroke-width=".21" d="M19.935 3.539c-3.446-.004-6.833-.902-9.83-2.604C4.046-2.588.32-9.068.32-16.077c10.83.008 19.608 8.786 19.616 19.616z" mask="url(#prefix__x)"/>
        </g>
        <g transform="translate(261)">
            <mask id="prefix__z" fill="#fff">
                <use xlink:href="#prefix__y"/>
            </mask>
            <path stroke="#0054A5" stroke-width=".21" d="M20.044-16.077c0 7.009-3.729 13.488-9.787 17.012C7.27 2.655 3.877 3.554.428 3.539.436-7.29 9.214-16.069 20.044-16.077z" mask="url(#prefix__z)"/>
        </g>
        <g transform="translate(281)">
            <mask id="prefix__B" fill="#fff">
                <use xlink:href="#prefix__A"/>
            </mask>
            <path stroke="#0054A5" stroke-width=".21" d="M19.66 3.539c-3.433 0-6.808-.897-9.787-2.604C3.803-2.575.07-9.063.086-16.077c10.787-.023 19.552 8.703 19.575 19.49v.126z" mask="url(#prefix__B)"/>
        </g>
        <g transform="translate(222)">
            <mask id="prefix__D" fill="#fff">
                <use xlink:href="#prefix__C"/>
            </mask>
            <path stroke="#0054A5" stroke-width=".21" d="M19.854-16.077c0 7.009-3.73 13.488-9.787 17.012C7.093 2.655 3.715 3.554.28 3.539.288-7.275 9.04-16.046 19.854-16.077z" mask="url(#prefix__D)"/>
        </g>
        <g transform="translate(241)">
            <mask id="prefix__F" fill="#fff">
                <use xlink:href="#prefix__E"/>
            </mask>
            <path stroke="#0054A5" stroke-width=".21" d="M20.47 3.539c-3.446-.004-6.833-.902-9.829-2.604C4.582-2.588.854-9.068.854-16.077c10.83.008 19.608 8.786 19.616 19.616z" mask="url(#prefix__F)"/>
        </g>
        <g transform="translate(182)">
            <mask id="prefix__H" fill="#fff">
                <use xlink:href="#prefix__G"/>
            </mask>
            <path stroke="#0054A5" stroke-width=".21" d="M20.58-16.077c0 7.009-3.729 13.488-9.788 17.012-2.988 1.72-6.38 2.619-9.829 2.604C.971-7.29 9.75-16.069 20.58-16.077z" mask="url(#prefix__H)"/>
        </g>
        <g transform="translate(202)">
            <mask id="prefix__J" fill="#fff">
                <use xlink:href="#prefix__I"/>
            </mask>
            <path stroke="#0054A5" stroke-width=".21" d="M20.238 3.539c-3.446-.004-6.832-.902-9.83-2.604C4.35-2.588.623-9.068.623-16.077c7.009 0 13.489 3.728 17.012 9.787 1.703 2.996 2.599 6.383 2.604 9.829z" mask="url(#prefix__J)"/>
        </g>
        <g transform="translate(457)">
            <mask id="prefix__L" fill="#fff">
                <use xlink:href="#prefix__K"/>
            </mask>
            <path stroke="#0054A5" stroke-width=".21" d="M20.205-16.077c0 7.009-3.728 13.488-9.787 17.012C7.432 2.66 4.04 3.56.59 3.539.597-7.291 9.375-16.07 20.205-16.077z" mask="url(#prefix__L)"/>
        </g>
        <g transform="translate(477)">
            <mask id="prefix__N" fill="#fff">
                <use xlink:href="#prefix__M"/>
            </mask>
            <path stroke="#0054A5" stroke-width=".21" d="M19.822 3.539c-3.434 0-6.808-.897-9.787-2.604C3.963-2.575.23-9.063.248-16.077c10.787-.023 19.55 8.703 19.574 19.49v.126z" mask="url(#prefix__N)"/>
        </g>
        <g transform="translate(418)">
            <mask id="prefix__P" fill="#fff">
                <use xlink:href="#prefix__O"/>
            </mask>
            <path stroke="#0054A5" stroke-width=".21" d="M20.015-16.077c0 7.009-3.728 13.488-9.787 17.012C7.254 2.655 3.876 3.554.441 3.539.45-7.275 9.202-16.046 20.015-16.077z" mask="url(#prefix__P)"/>
        </g>
        <g transform="translate(438)">
            <mask id="prefix__R" fill="#fff">
                <use xlink:href="#prefix__Q"/>
            </mask>
            <path stroke="#0054A5" stroke-width=".21" d="M19.631 3.539C16.185 3.535 12.8 2.637 9.802.935 3.743-2.588.015-9.068.015-16.077c10.831.008 19.608 8.786 19.616 19.616z" mask="url(#prefix__R)"/>
        </g>
        <g transform="translate(379)">
            <mask id="prefix__T" fill="#fff">
                <use xlink:href="#prefix__S"/>
            </mask>
            <path stroke="#0054A5" stroke-width=".21" d="M19.74-16.077c0 7.009-3.727 13.488-9.786 17.012-2.989 1.72-6.38 2.619-9.83 2.604.01-10.83 8.787-19.608 19.616-19.616z" mask="url(#prefix__T)"/>
        </g>
        <g transform="translate(398)">
            <mask id="prefix__V" fill="#fff">
                <use xlink:href="#prefix__U"/>
            </mask>
            <path stroke="#0054A5" stroke-width=".21" d="M20.399 3.539c-3.446-.004-6.832-.902-9.83-2.604C4.512-2.588.785-9.068.784-16.077c7.009 0 13.489 3.728 17.012 9.787 1.703 2.996 2.6 6.383 2.604 9.829z" mask="url(#prefix__V)"/>
        </g>
        <g transform="translate(339)">
            <mask id="prefix__X" fill="#fff">
                <use xlink:href="#prefix__W"/>
            </mask>
            <path stroke="#0054A5" stroke-width=".21" d="M20.551-16.077c0 7.009-3.729 13.488-9.787 17.012C7.79 2.655 4.412 3.554.977 3.539c.008-10.814 8.76-19.585 19.574-19.616z" mask="url(#prefix__X)"/>
        </g>
        <g transform="translate(359)">
            <mask id="prefix__Z" fill="#fff">
                <use xlink:href="#prefix__Y"/>
            </mask>
            <path stroke="#0054A5" stroke-width=".21" d="M20.125 3.539c-3.435 0-6.809-.897-9.787-2.604C4.278-2.588.551-9.068.551-16.077c10.787-.023 19.551 8.703 19.574 19.49v.126h0z" mask="url(#prefix__Z)"/>
        </g>
        <g transform="translate(575)">
            <mask id="prefix__ab" fill="#fff">
                <use xlink:href="#prefix__aa"/>
            </mask>
            <path stroke="#0054A5" stroke-width=".21" d="M19.903-16.077C19.902-9.068 16.173-2.59 10.116.935c-2.99 1.72-6.381 2.619-9.83 2.604.009-10.83 8.786-19.608 19.617-19.616z" mask="url(#prefix__ab)"/>
        </g>
        <g transform="translate(594)">
            <mask id="prefix__ad" fill="#fff">
                <use xlink:href="#prefix__ac"/>
            </mask>
            <path stroke="#0054A5" stroke-width=".21" d="M20.519 3.539c-3.435 0-6.81-.897-9.787-2.604C4.66-2.575.926-9.063.945-16.077c10.787-.023 19.55 8.703 19.574 19.49l-.001.126h0z" mask="url(#prefix__ad)"/>
        </g>
        <g transform="translate(536)">
            <mask id="prefix__af" fill="#fff">
                <use xlink:href="#prefix__ae"/>
            </mask>
            <path stroke="#0054A5" stroke-width=".21" d="M19.712-16.077c0 7.009-3.729 13.488-9.787 17.012C6.951 2.655 3.573 3.554.138 3.539c.008-10.814 8.76-19.585 19.574-19.616z" mask="url(#prefix__af)"/>
        </g>
        <g transform="translate(555)">
            <mask id="prefix__ah" fill="#fff">
                <use xlink:href="#prefix__ag"/>
            </mask>
            <path stroke="#0054A5" stroke-width=".21" d="M20.286 3.539c-3.446-.004-6.833-.902-9.829-2.604C4.397-2.588.67-9.068.67-16.077c7-.01 13.471 3.723 16.97 9.787 1.752 2.977 2.667 6.374 2.646 9.829z" mask="url(#prefix__ah)"/>
        </g>
        <g transform="translate(496)">
            <mask id="prefix__aj" fill="#fff">
                <use xlink:href="#prefix__ai"/>
            </mask>
            <path stroke="#0054A5" stroke-width=".21" d="M20.438-16.077c0 7.009-3.73 13.488-9.787 17.012C7.663 2.655 4.27 3.554.82 3.539.83-7.29 9.609-16.069 20.439-16.077z" mask="url(#prefix__aj)"/>
        </g>
        <g transform="translate(516)">
            <mask id="prefix__al" fill="#fff">
                <use xlink:href="#prefix__ak"/>
            </mask>
            <path stroke="#0054A5" stroke-width=".21" d="M20.096 3.539c-3.446-.004-6.833-.902-9.829-2.604C4.207-2.588.48-9.068.48-16.077c7.009 0 13.488 3.728 17.012 9.787 1.702 2.996 2.599 6.383 2.604 9.829z" mask="url(#prefix__al)"/>
        </g>
        <g transform="translate(0 23)">
            <mask id="prefix__an" fill="#fff">
                <use xlink:href="#prefix__am"/>
            </mask>
            <path stroke="#0054A5" stroke-width=".21" d="M6.46.155c0 7.009-3.728 13.489-9.787 17.012-2.986 1.726-6.379 2.625-9.829 2.604C-13.148 8.94-4.37.163 6.46.155z" mask="url(#prefix__an)"/>
        </g>
        <path stroke="#0054A5" stroke-width=".21" d="M26.076 42.771c-3.445-.004-6.832-.902-9.829-2.604-6.059-3.523-9.787-10.003-9.787-17.012 10.83.008 19.608 8.785 19.616 19.616z"/>
        <g transform="translate(0 3)">
            <mask id="prefix__ap" fill="#fff">
                <use xlink:href="#prefix__ao"/>
            </mask>
            <path stroke="#0054A5" stroke-width=".21" d="M6.46 20.155c-7.02 0-13.507-3.746-17.012-9.83-1.734-2.97-2.647-6.347-2.646-9.786C-2.364.555 6.422 9.322 6.46 20.155z" mask="url(#prefix__ap)"/>
        </g>
        <path stroke="#0054A5" stroke-width=".21" d="M26.077 3.539c.006 3.44-.908 6.819-2.647 9.787-3.495 6.072-9.963 9.819-16.97 9.829-.046-10.787 8.66-19.57 19.448-19.616h.169zM163.389 23.155c0 7.009-3.728 13.489-9.787 17.012-2.986 1.726-6.379 2.625-9.829 2.604.009-10.83 8.786-19.608 19.616-19.616z"/>
        <path stroke="#0054A5" stroke-width=".21" d="M182.963 42.771c-3.434.001-6.808-.897-9.787-2.604-6.072-3.51-9.805-9.999-9.787-17.012 10.788-.024 19.552 8.702 19.574 19.49v.126z"/>
        <path stroke="#0054A5" stroke-width=".21" d="M163.389 23.155c-10.816-.04-19.576-8.8-19.616-19.616 10.831.008 19.608 8.786 19.616 19.616z"/>
        <path stroke="#0054A5" stroke-width=".21" d="M182.963 3.538c.007 3.44-.906 6.82-2.646 9.788-3.495 6.072-9.963 9.819-16.97 9.829 0-7.02 3.747-13.507 9.83-17.012 2.973-1.721 6.35-2.62 9.786-2.605zM124.158 23.155c-10.817-.04-19.578-8.8-19.617-19.616 3.44-.007 6.82.907 9.788 2.646 6.088 3.479 9.84 9.958 9.829 16.97zM124.157 23.155c0 7.009-3.728 13.489-9.786 17.012-2.974 1.72-6.352 2.62-9.787 2.604.007-10.814 8.76-19.585 19.573-19.616zM143.773 42.771c-3.446-.004-6.832-.902-9.828-2.604-6.06-3.523-9.787-10.003-9.787-17.012 10.83.008 19.607 8.785 19.615 19.616z"/>
        <path stroke="#0054A5" stroke-width=".21" d="M143.773 3.539c.007 3.44-.906 6.819-2.646 9.787-3.495 6.072-9.963 9.819-16.97 9.829-.046-10.787 8.66-19.57 19.448-19.616h.168zM84.883 23.155c0 7.009-3.729 13.489-9.787 17.012-2.989 1.72-6.38 2.62-9.829 2.604.008-10.83 8.785-19.608 19.616-19.616zM84.883 23.155c-10.817-.04-19.577-8.8-19.616-19.616 10.83.008 19.608 8.786 19.616 19.616zM104.541 3.539c.007 3.44-.907 6.819-2.646 9.787-3.505 6.083-9.992 9.83-17.012 9.829-.002-7.02 3.746-13.507 9.83-17.012 2.985-1.726 6.378-2.625 9.828-2.604z"/>
        <path stroke="#0054A5" stroke-width=".21" d="M104.541 42.771c-3.446-.004-6.833-.902-9.829-2.604-6.06-3.523-9.787-10.003-9.787-17.012 7.01 0 13.488 3.728 17.012 9.787 1.702 2.996 2.6 6.383 2.604 9.829zM45.693 23.155c0 7.009-3.73 13.489-9.787 17.012-2.974 1.72-6.352 2.62-9.787 2.604.008-10.814 8.76-19.585 19.574-19.616zM65.309 42.771c-3.434.001-6.808-.897-9.787-2.604-6.06-3.523-9.787-10.003-9.787-17.012 7-.009 13.472 3.723 16.97 9.787 1.702 2.996 2.599 6.383 2.604 9.829zM45.693 23.155c-10.817-.04-19.576-8.8-19.616-19.616 3.44-.007 6.819.907 9.787 2.646 6.088 3.479 9.84 9.958 9.829 16.97z"/>
        <path stroke="#0054A5" stroke-width=".21" d="M65.309 3.539c.007 3.44-.907 6.819-2.646 9.787-3.496 6.072-9.964 9.819-16.97 9.829-.002-7.02 3.746-13.507 9.829-17.012 2.969-1.731 6.349-2.63 9.787-2.604z"/>
        <g transform="translate(0 62)">
            <mask id="prefix__ar" fill="#fff">
                <use xlink:href="#prefix__aq"/>
            </mask>
            <path stroke="#0054A5" stroke-width=".21" d="M6.46.387c0 7.01-3.728 13.49-9.787 17.012-2.986 1.726-6.379 2.625-9.829 2.604C-13.148 9.173-4.37.395 6.46.387z" mask="url(#prefix__ar)"/>
        </g>
        <g transform="translate(6 62)">
            <mask id="prefix__at" fill="#fff">
                <use xlink:href="#prefix__as"/>
            </mask>
            <path stroke="#0054A5" stroke-width=".21" d="M20.076 20.003c-3.445-.005-6.833-.902-9.829-2.604C4.19 13.876.46 7.396.46.387c10.83.008 19.608 8.785 19.616 19.616z" mask="url(#prefix__at)"/>
        </g>
        <g transform="translate(0 42)">
            <mask id="prefix__av" fill="#fff">
                <use xlink:href="#prefix__au"/>
            </mask>
            <path stroke="#0054A5" stroke-width=".21" d="M6.46 20.387c-7.02.001-13.507-3.747-17.012-9.829-1.734-2.97-2.647-6.348-2.646-9.787C-2.364.787 6.422 9.554 6.46 20.387z" mask="url(#prefix__av)"/>
        </g>
        <path stroke="#0054A5" stroke-width=".21" d="M26.077 42.771c.006 3.44-.908 6.819-2.647 9.787-3.495 6.072-9.963 9.819-16.97 9.829-.046-10.787 8.66-19.57 19.448-19.616h.169z"/>
        <g transform="translate(143 62)">
            <mask id="prefix__ax" fill="#fff">
                <use xlink:href="#prefix__aw"/>
            </mask>
            <path stroke="#0054A5" stroke-width=".21" d="M20.389.387c0 7.01-3.728 13.49-9.787 17.012-2.986 1.726-6.379 2.625-9.829 2.604C.782 9.173 9.559.395 20.389.387z" mask="url(#prefix__ax)"/>
        </g>
        <g transform="translate(163 62)">
            <mask id="prefix__az" fill="#fff">
                <use xlink:href="#prefix__ay"/>
            </mask>
            <path stroke="#0054A5" stroke-width=".21" d="M19.963 20.003c-3.434 0-6.808-.897-9.787-2.604C4.104 13.89.371 7.4.39.387 11.177.363 19.941 9.09 19.963 19.877v.126z" mask="url(#prefix__az)"/>
        </g>
        <path stroke="#0054A5" stroke-width=".21" d="M163.389 62.387c-10.816-.04-19.576-8.799-19.616-19.616 10.831.008 19.608 8.785 19.616 19.616z"/>
        <path stroke="#0054A5" stroke-width=".21" d="M182.963 42.771c.007 3.44-.906 6.819-2.646 9.787-3.495 6.072-9.963 9.819-16.97 9.829 0-7.02 3.747-13.507 9.83-17.012 2.973-1.721 6.35-2.62 9.786-2.604zM124.158 62.387c-10.817-.04-19.578-8.799-19.617-19.616 3.44-.007 6.82.907 9.788 2.646 6.088 3.48 9.84 9.958 9.829 16.97z"/>
        <g transform="translate(104 62)">
            <mask id="prefix__aB" fill="#fff">
                <use xlink:href="#prefix__aA"/>
            </mask>
            <path stroke="#0054A5" stroke-width=".21" d="M20.157.387c0 7.01-3.729 13.49-9.787 17.012C7.397 19.12 4.02 20.02.585 20.003.592 9.19 9.344.418 20.157.387z" mask="url(#prefix__aB)"/>
        </g>
        <g transform="translate(124 62)">
            <mask id="prefix__aD" fill="#fff">
                <use xlink:href="#prefix__aC"/>
            </mask>
            <path stroke="#0054A5" stroke-width=".21" d="M19.773 20.003c-3.446-.005-6.832-.902-9.828-2.604C3.885 13.876.158 7.396.158.387c10.83.008 19.607 8.785 19.615 19.616z" mask="url(#prefix__aD)"/>
        </g>
        <path stroke="#0054A5" stroke-width=".21" d="M143.773 42.771c.007 3.44-.906 6.819-2.646 9.787-3.495 6.072-9.963 9.819-16.97 9.829-.046-10.787 8.66-19.57 19.448-19.616h.168z"/>
        <g transform="translate(65 62)">
            <mask id="prefix__aF" fill="#fff">
                <use xlink:href="#prefix__aE"/>
            </mask>
            <path stroke="#0054A5" stroke-width=".21" d="M19.883.387c0 7.01-3.729 13.49-9.787 17.012-2.989 1.721-6.38 2.62-9.829 2.604C.275 9.173 9.052.395 19.883.387z" mask="url(#prefix__aF)"/>
        </g>
        <path stroke="#0054A5" stroke-width=".21" d="M84.883 62.387c-10.817-.04-19.577-8.799-19.616-19.616 10.83.008 19.608 8.785 19.616 19.616zM104.541 42.771c.007 3.44-.907 6.819-2.646 9.787-3.505 6.083-9.992 9.831-17.012 9.829-.002-7.02 3.746-13.507 9.83-17.012 2.985-1.726 6.378-2.625 9.828-2.604z"/>
        <g transform="translate(84 62)">
            <mask id="prefix__aH" fill="#fff">
                <use xlink:href="#prefix__aG"/>
            </mask>
            <path stroke="#0054A5" stroke-width=".21" d="M20.541 20.003c-3.446-.005-6.833-.902-9.829-2.604C4.652 13.876.925 7.396.925.387c7.01 0 13.488 3.728 17.012 9.787 1.702 2.996 2.6 6.383 2.604 9.83z" mask="url(#prefix__aH)"/>
        </g>
        <g transform="translate(26 62)">
            <mask id="prefix__aJ" fill="#fff">
                <use xlink:href="#prefix__aI"/>
            </mask>
            <path stroke="#0054A5" stroke-width=".21" d="M19.693.387c0 7.01-3.73 13.49-9.787 17.012-2.974 1.721-6.352 2.62-9.787 2.604C.127 9.19 8.879.418 19.693.387z" mask="url(#prefix__aJ)"/>
        </g>
        <g transform="translate(45 62)">
            <mask id="prefix__aL" fill="#fff">
                <use xlink:href="#prefix__aK"/>
            </mask>
            <path stroke="#0054A5" stroke-width=".21" d="M20.309 20.003c-3.434 0-6.808-.897-9.787-2.604C4.462 13.876.735 7.396.735.387c7-.01 13.472 3.722 16.97 9.787 1.702 2.996 2.599 6.383 2.604 9.83z" mask="url(#prefix__aL)"/>
        </g>
        <path stroke="#0054A5" stroke-width=".21" d="M45.693 62.387c-10.817-.04-19.576-8.799-19.616-19.616 3.44-.007 6.819.907 9.787 2.646 6.088 3.48 9.84 9.958 9.829 16.97z"/>
        <path stroke="#0054A5" stroke-width=".21" d="M65.309 42.771c.007 3.44-.907 6.819-2.646 9.787-3.496 6.072-9.964 9.819-16.97 9.829-.002-7.02 3.746-13.507 9.829-17.012 2.969-1.731 6.349-2.63 9.787-2.604zM320.319 23.155c0 7.009-3.73 13.489-9.787 17.012-2.987 1.726-6.38 2.625-9.83 2.604.009-10.83 8.786-19.608 19.617-19.616z"/>
        <path stroke="#0054A5" stroke-width=".21" d="M339.935 42.771c-3.446-.004-6.833-.902-9.83-2.604-6.06-3.523-9.786-10.003-9.786-17.012 10.83.008 19.608 8.785 19.616 19.616zM320.319 23.155c-7.021 0-13.507-3.746-17.012-9.83-1.734-2.97-2.647-6.347-2.646-9.786 10.834.016 19.618 8.783 19.658 19.616z"/>
        <path stroke="#0054A5" stroke-width=".21" d="M339.935 3.539c.007 3.44-.907 6.819-2.646 9.787-3.496 6.072-9.964 9.819-16.97 9.829-.047-10.787 8.66-19.57 19.447-19.616h.169zM281.044 23.155c-10.817-.04-19.576-8.8-19.616-19.616 10.83.008 19.608 8.786 19.616 19.616zM281.044 23.155c0 7.009-3.729 13.489-9.787 17.012-2.988 1.72-6.38 2.62-9.829 2.604.008-10.83 8.786-19.608 19.616-19.616zM300.66 42.771c-3.434.001-6.808-.897-9.787-2.604-6.072-3.51-9.805-9.999-9.787-17.012 10.787-.023 19.551 8.702 19.575 19.49v.126z"/>
        <path stroke="#0054A5" stroke-width=".21" d="M300.66 3.538c.007 3.44-.907 6.82-2.646 9.788-3.495 6.072-9.964 9.819-16.97 9.829-.001-7.02 3.747-13.507 9.83-17.012 2.974-1.721 6.35-2.62 9.787-2.605zM241.854 23.155c0 7.009-3.73 13.489-9.787 17.012-2.974 1.72-6.352 2.62-9.787 2.604.008-10.814 8.76-19.585 19.574-19.616zM241.854 23.155c-10.817-.04-19.576-8.8-19.616-19.616 3.44-.007 6.819.907 9.787 2.646 6.088 3.479 9.84 9.958 9.829 16.97z"/>
        <path stroke="#0054A5" stroke-width=".21" d="M261.47 3.539c.007 3.44-.907 6.819-2.646 9.787-3.496 6.072-9.964 9.819-16.97 9.829 0-7.01 3.728-13.488 9.787-17.012 2.986-1.726 6.38-2.625 9.829-2.604zM261.47 42.771c-3.446-.004-6.833-.902-9.829-2.604-6.059-3.523-9.787-10.003-9.787-17.012 10.83.008 19.608 8.785 19.616 19.616zM202.58 23.155c0 7.009-3.729 13.489-9.788 17.012-2.988 1.72-6.38 2.62-9.829 2.604.008-10.83 8.786-19.608 19.616-19.616zM222.238 42.771c-3.446-.004-6.832-.902-9.83-2.604-6.058-3.523-9.786-10.003-9.786-17.012 7.009 0 13.489 3.728 17.012 9.787 1.703 2.996 2.599 6.383 2.604 9.829zM202.58 23.155c-10.818-.04-19.577-8.8-19.617-19.616 10.831.008 19.608 8.786 19.616 19.616z"/>
        <path stroke="#0054A5" stroke-width=".21" d="M222.238 3.539c.007 3.44-.906 6.819-2.646 9.787-3.505 6.083-9.992 9.83-17.012 9.829-.001-7.02 3.747-13.507 9.829-17.012 2.987-1.726 6.38-2.625 9.829-2.604zM477.205 23.155c0 7.009-3.728 13.489-9.787 17.012-2.986 1.726-6.379 2.625-9.829 2.604.008-10.83 8.786-19.608 19.616-19.616zM496.822 42.771c-3.434.001-6.808-.897-9.787-2.604-6.072-3.51-9.805-9.999-9.787-17.012 10.787-.024 19.55 8.702 19.574 19.49v.126zM477.205 23.155c-10.817-.04-19.576-8.8-19.616-19.616 10.831.008 19.608 8.786 19.616 19.616z"/>
        <path stroke="#0054A5" stroke-width=".21" d="M496.822 3.538c.007 3.44-.907 6.82-2.646 9.788-3.496 6.072-9.964 9.819-16.97 9.829-.001-7.02 3.746-13.507 9.829-17.012 2.974-1.721 6.35-2.62 9.787-2.605zM438.015 23.155c-10.817-.04-19.576-8.8-19.616-19.616 3.44-.007 6.819.907 9.787 2.646 6.088 3.479 9.841 9.958 9.829 16.97zM438.015 23.155c0 7.009-3.728 13.489-9.787 17.012-2.974 1.72-6.352 2.62-9.787 2.604.009-10.814 8.761-19.585 19.574-19.616z"/>
        <path stroke="#0054A5" stroke-width=".21" d="M457.631 42.771c-3.446-.004-6.832-.902-9.829-2.604-6.059-3.523-9.787-10.003-9.787-17.012 10.831.008 19.608 8.785 19.616 19.616zM457.631 3.539c.007 3.44-.906 6.819-2.646 9.787-3.495 6.072-9.963 9.819-16.97 9.829-.046-10.787 8.661-19.57 19.448-19.616h.168zM398.74 23.155c0 7.009-3.728 13.489-9.786 17.012-2.988 1.72-6.38 2.62-9.83 2.604.01-10.83 8.786-19.608 19.616-19.616zM398.74 23.155c-10.815-.04-19.576-8.8-19.615-19.616 10.83.008 19.608 8.786 19.615 19.616zM418.399 3.539c.007 3.44-.906 6.819-2.646 9.787-3.505 6.083-9.992 9.83-17.012 9.829-.001-7.02 3.747-13.507 9.829-17.012 2.987-1.726 6.38-2.625 9.829-2.604z"/>
        <path stroke="#0054A5" stroke-width=".21" d="M418.399 42.771c-3.446-.004-6.832-.902-9.83-2.604-6.058-3.523-9.785-10.003-9.786-17.012 7.009 0 13.489 3.728 17.012 9.787 1.703 2.996 2.6 6.383 2.604 9.829zM359.551 23.155c0 7.009-3.729 13.489-9.787 17.012-2.974 1.72-6.352 2.62-9.787 2.604.008-10.814 8.76-19.585 19.574-19.616zM379.125 42.771c-3.435.001-6.809-.897-9.787-2.604-6.06-3.523-9.787-10.003-9.787-17.012 10.787-.024 19.551 8.702 19.574 19.49v.126h0z"/>
        <path stroke="#0054A5" stroke-width=".21" d="M359.551 23.155c-10.817-.04-19.577-8.8-19.616-19.616 3.44-.007 6.82.907 9.787 2.646 6.088 3.479 9.84 9.958 9.83 16.97z"/>
        <path stroke="#0054A5" stroke-width=".21" d="M379.125 3.538c.007 3.44-.907 6.82-2.646 9.788-3.496 6.072-9.964 9.819-16.97 9.829-.002-7.02 3.746-13.507 9.83-17.012 2.972-1.721 6.35-2.62 9.786-2.605z"/>
        <g transform="translate(300 62)">
            <mask id="prefix__aN" fill="#fff">
                <use xlink:href="#prefix__aM"/>
            </mask>
            <path stroke="#0054A5" stroke-width=".21" d="M20.319.387c0 7.01-3.73 13.49-9.787 17.012-2.987 1.726-6.38 2.625-9.83 2.604C.712 9.173 9.489.395 20.32.387z" mask="url(#prefix__aN)"/>
        </g>
        <g transform="translate(320 62)">
            <mask id="prefix__aP" fill="#fff">
                <use xlink:href="#prefix__aO"/>
            </mask>
            <path stroke="#0054A5" stroke-width=".21" d="M19.935 20.003c-3.446-.005-6.833-.902-9.83-2.604C4.046 13.876.32 7.396.32.387c10.83.008 19.608 8.785 19.616 19.616z" mask="url(#prefix__aP)"/>
        </g>
        <path stroke="#0054A5" stroke-width=".21" d="M320.319 62.387c-7.021.001-13.507-3.747-17.012-9.829-1.734-2.97-2.647-6.348-2.646-9.787 10.834.016 19.618 8.783 19.658 19.616z"/>
        <path stroke="#0054A5" stroke-width=".21" d="M339.935 42.771c.007 3.44-.907 6.819-2.646 9.787-3.496 6.072-9.964 9.819-16.97 9.829-.047-10.787 8.66-19.57 19.447-19.616h.169zM281.044 62.387c-10.817-.04-19.576-8.799-19.616-19.616 10.83.008 19.608 8.785 19.616 19.616z"/>
        <g transform="translate(261 62)">
            <mask id="prefix__aR" fill="#fff">
                <use xlink:href="#prefix__aQ"/>
            </mask>
            <path stroke="#0054A5" stroke-width=".21" d="M20.044.387c0 7.01-3.729 13.49-9.787 17.012-2.988 1.721-6.38 2.62-9.829 2.604C.436 9.173 9.214.395 20.044.387z" mask="url(#prefix__aR)"/>
        </g>
        <g transform="translate(281 62)">
            <mask id="prefix__aT" fill="#fff">
                <use xlink:href="#prefix__aS"/>
            </mask>
            <path stroke="#0054A5" stroke-width=".21" d="M19.66 20.003c-3.433 0-6.808-.897-9.787-2.604C3.803 13.89.07 7.4.086.387 10.873.363 19.638 9.09 19.661 19.877v.126z" mask="url(#prefix__aT)"/>
        </g>
        <path stroke="#0054A5" stroke-width=".21" d="M300.66 42.771c.007 3.44-.907 6.819-2.646 9.787-3.495 6.072-9.964 9.819-16.97 9.829-.001-7.02 3.747-13.507 9.83-17.012 2.974-1.721 6.35-2.62 9.787-2.604z"/>
        <g transform="translate(222 62)">
            <mask id="prefix__aV" fill="#fff">
                <use xlink:href="#prefix__aU"/>
            </mask>
            <path stroke="#0054A5" stroke-width=".21" d="M19.854.387c0 7.01-3.73 13.49-9.787 17.012C7.093 19.12 3.715 20.02.28 20.003.288 9.19 9.04.418 19.854.387z" mask="url(#prefix__aV)"/>
        </g>
        <path stroke="#0054A5" stroke-width=".21" d="M241.854 62.387c-10.817-.04-19.576-8.799-19.616-19.616 3.44-.007 6.819.907 9.787 2.646 6.088 3.48 9.84 9.958 9.829 16.97z"/>
        <path stroke="#0054A5" stroke-width=".21" d="M261.47 42.771c.007 3.44-.907 6.819-2.646 9.787-3.496 6.072-9.964 9.819-16.97 9.829 0-7.009 3.728-13.489 9.787-17.012 2.986-1.726 6.38-2.625 9.829-2.604z"/>
        <g transform="translate(241 62)">
            <mask id="prefix__aX" fill="#fff">
                <use xlink:href="#prefix__aW"/>
            </mask>
            <path stroke="#0054A5" stroke-width=".21" d="M20.47 20.003c-3.446-.005-6.833-.902-9.829-2.604C4.582 13.876.854 7.396.854.387c10.83.008 19.608 8.785 19.616 19.616z" mask="url(#prefix__aX)"/>
        </g>
        <g transform="translate(182 62)">
            <mask id="prefix__aZ" fill="#fff">
                <use xlink:href="#prefix__aY"/>
            </mask>
            <path stroke="#0054A5" stroke-width=".21" d="M20.58.387c0 7.01-3.729 13.49-9.788 17.012-2.988 1.721-6.38 2.62-9.829 2.604C.971 9.173 9.75.395 20.58.387z" mask="url(#prefix__aZ)"/>
        </g>
        <g transform="translate(202 62)">
            <mask id="prefix__bb" fill="#fff">
                <use xlink:href="#prefix__ba"/>
            </mask>
            <path stroke="#0054A5" stroke-width=".21" d="M20.238 20.003c-3.446-.005-6.832-.902-9.83-2.604C4.35 13.876.623 7.396.623.387c7.009 0 13.489 3.728 17.012 9.787 1.703 2.996 2.599 6.383 2.604 9.83z" mask="url(#prefix__bb)"/>
        </g>
        <path stroke="#0054A5" stroke-width=".21" d="M202.58 62.387c-10.818-.04-19.577-8.799-19.617-19.616 10.831.008 19.608 8.785 19.616 19.616zM222.238 42.771c.007 3.44-.906 6.819-2.646 9.787-3.505 6.083-9.992 9.831-17.012 9.829-.001-7.02 3.747-13.507 9.829-17.012 2.987-1.726 6.38-2.625 9.829-2.604z"/>
        <g transform="translate(457 62)">
            <mask id="prefix__bd" fill="#fff">
                <use xlink:href="#prefix__bc"/>
            </mask>
            <path stroke="#0054A5" stroke-width=".21" d="M20.205.387c0 7.01-3.728 13.49-9.787 17.012C7.432 19.125 4.04 20.024.59 20.003.597 9.173 9.375.395 20.205.387z" mask="url(#prefix__bd)"/>
        </g>
        <g transform="translate(477 62)">
            <mask id="prefix__bf" fill="#fff">
                <use xlink:href="#prefix__be"/>
            </mask>
            <path stroke="#0054A5" stroke-width=".21" d="M19.822 20.003c-3.434 0-6.808-.897-9.787-2.604C3.963 13.89.23 7.4.248.387c10.787-.024 19.55 8.702 19.574 19.49v.126z" mask="url(#prefix__bf)"/>
        </g>
        <path stroke="#0054A5" stroke-width=".21" d="M477.205 62.387c-10.817-.04-19.576-8.799-19.616-19.616 10.831.008 19.608 8.785 19.616 19.616zM496.822 42.771c.007 3.44-.907 6.819-2.646 9.787-3.496 6.072-9.964 9.819-16.97 9.829-.001-7.02 3.746-13.507 9.829-17.012 2.974-1.721 6.35-2.62 9.787-2.604zM438.015 62.387c-10.817-.04-19.576-8.799-19.616-19.616 3.44-.007 6.819.907 9.787 2.646 6.088 3.48 9.841 9.958 9.829 16.97z"/>
        <g transform="translate(418 62)">
            <mask id="prefix__bh" fill="#fff">
                <use xlink:href="#prefix__bg"/>
            </mask>
            <path stroke="#0054A5" stroke-width=".21" d="M20.015.387c0 7.01-3.728 13.49-9.787 17.012-2.974 1.721-6.352 2.62-9.787 2.604C.45 9.19 9.202.418 20.015.387z" mask="url(#prefix__bh)"/>
        </g>
        <g transform="translate(438 62)">
            <mask id="prefix__bj" fill="#fff">
                <use xlink:href="#prefix__bi"/>
            </mask>
            <path stroke="#0054A5" stroke-width=".21" d="M19.631 20.003c-3.446-.005-6.832-.902-9.829-2.604C3.743 13.876.015 7.396.015.387c10.831.008 19.608 8.785 19.616 19.616z" mask="url(#prefix__bj)"/>
        </g>
        <path stroke="#0054A5" stroke-width=".21" d="M457.631 42.771c.007 3.44-.906 6.819-2.646 9.787-3.495 6.072-9.963 9.819-16.97 9.829-.046-10.787 8.661-19.57 19.448-19.616h.168z"/>
        <g transform="translate(379 62)">
            <mask id="prefix__bl" fill="#fff">
                <use xlink:href="#prefix__bk"/>
            </mask>
            <path stroke="#0054A5" stroke-width=".21" d="M19.74.387c0 7.01-3.727 13.49-9.786 17.012-2.989 1.721-6.38 2.62-9.83 2.604C.134 9.173 8.912.395 19.74.387z" mask="url(#prefix__bl)"/>
        </g>
        <path stroke="#0054A5" stroke-width=".21" d="M398.74 62.387c-10.815-.04-19.576-8.799-19.615-19.616 10.83.008 19.608 8.785 19.615 19.616zM418.399 42.771c.007 3.44-.906 6.819-2.646 9.787-3.505 6.083-9.992 9.831-17.012 9.829-.001-7.02 3.747-13.507 9.829-17.012 2.987-1.726 6.38-2.625 9.829-2.604z"/>
        <g transform="translate(398 62)">
            <mask id="prefix__bn" fill="#fff">
                <use xlink:href="#prefix__bm"/>
            </mask>
            <path stroke="#0054A5" stroke-width=".21" d="M20.399 20.003c-3.446-.005-6.832-.902-9.83-2.604C4.512 13.876.785 7.396.784.387c7.009 0 13.489 3.728 17.012 9.787 1.703 2.996 2.6 6.383 2.604 9.83z" mask="url(#prefix__bn)"/>
        </g>
        <g transform="translate(339 62)">
            <mask id="prefix__bp" fill="#fff">
                <use xlink:href="#prefix__bo"/>
            </mask>
            <path stroke="#0054A5" stroke-width=".21" d="M20.551.387c0 7.01-3.729 13.49-9.787 17.012C7.79 19.12 4.412 20.02.977 20.003.985 9.19 9.737.418 20.551.387z" mask="url(#prefix__bp)"/>
        </g>
        <g transform="translate(359 62)">
            <mask id="prefix__br" fill="#fff">
                <use xlink:href="#prefix__bq"/>
            </mask>
            <path stroke="#0054A5" stroke-width=".21" d="M20.125 20.003c-3.435 0-6.809-.897-9.787-2.604C4.278 13.876.551 7.396.551.387 11.338.363 20.102 9.09 20.125 19.877v.126h0z" mask="url(#prefix__br)"/>
        </g>
        <path stroke="#0054A5" stroke-width=".21" d="M359.551 62.387c-10.817-.04-19.577-8.799-19.616-19.616 3.44-.007 6.82.907 9.787 2.646 6.088 3.48 9.84 9.958 9.83 16.97z"/>
        <path stroke="#0054A5" stroke-width=".21" d="M379.125 42.771c.007 3.44-.907 6.819-2.646 9.787-3.496 6.072-9.964 9.819-16.97 9.829-.002-7.02 3.746-13.507 9.83-17.012 2.972-1.721 6.35-2.62 9.786-2.604zM594.903 23.155c-10.817-.04-19.577-8.8-19.616-19.616 10.83.008 19.608 8.786 19.616 19.616zM594.903 23.155c-.001 7.009-3.73 13.489-9.787 17.012-2.99 1.72-6.381 2.62-9.83 2.604.009-10.83 8.786-19.608 19.617-19.616z"/>
        <g transform="translate(594 23)">
            <mask id="prefix__bt" fill="#fff">
                <use xlink:href="#prefix__bs"/>
            </mask>
            <path stroke="#0054A5" stroke-width=".21" d="M20.519 19.771c-3.435.001-6.81-.897-9.787-2.604C4.66 13.657.926 7.168.945.155c10.787-.024 19.55 8.702 19.574 19.49l-.001.126h0z" mask="url(#prefix__bt)"/>
        </g>
        <g transform="translate(594 3)">
            <mask id="prefix__bv" fill="#fff">
                <use xlink:href="#prefix__bu"/>
            </mask>
            <path stroke="#0054A5" stroke-width=".21" d="M20.519.538c.007 3.44-.907 6.82-2.646 9.788-3.496 6.072-9.964 9.819-16.97 9.829C.9 13.135 4.649 6.648 10.732 3.143c2.973-1.721 6.35-2.62 9.787-2.605z" mask="url(#prefix__bv)"/>
        </g>
        <path stroke="#0054A5" stroke-width=".21" d="M555.712 23.155c0 7.009-3.729 13.489-9.787 17.012-2.974 1.72-6.352 2.62-9.787 2.604.008-10.814 8.76-19.585 19.574-19.616zM555.712 23.155c-10.817-.04-19.577-8.8-19.616-19.616 3.44-.007 6.82.907 9.787 2.646 6.088 3.479 9.84 9.958 9.83 16.97z"/>
        <path stroke="#0054A5" stroke-width=".21" d="M575.286 3.539c.007 3.44-.907 6.819-2.646 9.787-3.496 6.072-9.964 9.819-16.97 9.829-.047-10.787 8.66-19.57 19.447-19.616h.17zM575.286 42.771c-3.446-.004-6.833-.902-9.829-2.604-6.06-3.523-9.787-10.003-9.787-17.012 7-.009 13.471 3.723 16.97 9.787 1.752 2.977 2.667 6.374 2.646 9.829zM516.438 23.155c0 7.009-3.73 13.489-9.787 17.012-2.988 1.72-6.38 2.62-9.83 2.604.009-10.83 8.787-19.608 19.617-19.616zM536.096 42.771c-3.446-.004-6.833-.902-9.829-2.604-6.06-3.523-9.787-10.003-9.787-17.012 7.009 0 13.488 3.728 17.012 9.787 1.702 2.996 2.599 6.383 2.604 9.829zM516.438 23.155c-10.817-.04-19.576-8.8-19.616-19.616 10.83.008 19.608 8.786 19.616 19.616z"/>
        <path stroke="#0054A5" stroke-width=".21" d="M536.096 3.539c.007 3.44-.907 6.819-2.646 9.787-3.505 6.083-9.992 9.83-17.012 9.829-.002-7.02 3.746-13.507 9.829-17.012 2.986-1.726 6.379-2.625 9.829-2.604zM594.903 62.387c-10.817-.04-19.577-8.799-19.616-19.616 10.83.008 19.608 8.785 19.616 19.616z"/>
        <g transform="translate(575 62)">
            <mask id="prefix__bx" fill="#fff">
                <use xlink:href="#prefix__bw"/>
            </mask>
            <path stroke="#0054A5" stroke-width=".21" d="M19.903.387c-.001 7.01-3.73 13.49-9.787 17.012-2.99 1.721-6.381 2.62-9.83 2.604C.296 9.173 9.073.395 19.904.387z" mask="url(#prefix__bx)"/>
        </g>
        <g transform="translate(594 62)">
            <mask id="prefix__bz" fill="#fff">
                <use xlink:href="#prefix__by"/>
            </mask>
            <path stroke="#0054A5" stroke-width=".21" d="M20.519 20.003c-3.435 0-6.81-.897-9.787-2.604C4.66 13.89.926 7.4.945.387c10.787-.024 19.55 8.702 19.574 19.49l-.001.126h0z" mask="url(#prefix__bz)"/>
        </g>
        <g transform="translate(594 42)">
            <mask id="prefix__bB" fill="#fff">
                <use xlink:href="#prefix__bA"/>
            </mask>
            <path stroke="#0054A5" stroke-width=".21" d="M20.519.771c.007 3.44-.907 6.819-2.646 9.787-3.496 6.072-9.964 9.819-16.97 9.829C.9 13.367 4.649 6.88 10.732 3.375c2.973-1.721 6.35-2.62 9.787-2.604z" mask="url(#prefix__bB)"/>
        </g>
        <g transform="translate(536 62)">
            <mask id="prefix__bD" fill="#fff">
                <use xlink:href="#prefix__bC"/>
            </mask>
            <path stroke="#0054A5" stroke-width=".21" d="M19.712.387c0 7.01-3.729 13.49-9.787 17.012-2.974 1.721-6.352 2.62-9.787 2.604C.146 9.19 8.898.418 19.712.387z" mask="url(#prefix__bD)"/>
        </g>
        <path stroke="#0054A5" stroke-width=".21" d="M555.712 62.387c-10.817-.04-19.577-8.799-19.616-19.616 3.44-.007 6.82.907 9.787 2.646 6.088 3.48 9.84 9.958 9.83 16.97z"/>
        <path stroke="#0054A5" stroke-width=".21" d="M575.286 42.771c.007 3.44-.907 6.819-2.646 9.787-3.496 6.072-9.964 9.819-16.97 9.829-.047-10.787 8.66-19.57 19.447-19.616h.17z"/>
        <g transform="translate(555 62)">
            <mask id="prefix__bF" fill="#fff">
                <use xlink:href="#prefix__bE"/>
            </mask>
            <path stroke="#0054A5" stroke-width=".21" d="M20.286 20.003c-3.446-.005-6.833-.902-9.829-2.604C4.397 13.876.67 7.396.67.387c7-.01 13.471 3.722 16.97 9.787 1.752 2.977 2.667 6.374 2.646 9.83z" mask="url(#prefix__bF)"/>
        </g>
        <g transform="translate(496 62)">
            <mask id="prefix__bH" fill="#fff">
                <use xlink:href="#prefix__bG"/>
            </mask>
            <path stroke="#0054A5" stroke-width=".21" d="M20.438.387c0 7.01-3.73 13.49-9.787 17.012-2.988 1.721-6.38 2.62-9.83 2.604C.83 9.173 9.609.395 20.439.387z" mask="url(#prefix__bH)"/>
        </g>
        <g transform="translate(516 62)">
            <mask id="prefix__bJ" fill="#fff">
                <use xlink:href="#prefix__bI"/>
            </mask>
            <path stroke="#0054A5" stroke-width=".21" d="M20.096 20.003c-3.446-.005-6.833-.902-9.829-2.604C4.207 13.876.48 7.396.48.387c7.009 0 13.488 3.728 17.012 9.787 1.702 2.996 2.599 6.383 2.604 9.83z" mask="url(#prefix__bJ)"/>
        </g>
        <path stroke="#0054A5" stroke-width=".21" d="M516.438 62.387c-10.817-.04-19.576-8.799-19.616-19.616 10.83.008 19.608 8.785 19.616 19.616zM536.096 42.771c.007 3.44-.907 6.819-2.646 9.787-3.505 6.083-9.992 9.831-17.012 9.829-.002-7.02 3.746-13.507 9.829-17.012 2.986-1.726 6.379-2.625 9.829-2.604z"/>
    </g>
</svg>
