<?xml version="1.0" encoding="utf-8"?>
<!-- Generator: Adobe Illustrator 24.2.3, SVG Export Plug-In . SVG Version: 6.00 Build 0)  -->
<svg version="1.1" id="Layer_1" xmlns="http://www.w3.org/2000/svg" xmlns:xlink="http://www.w3.org/1999/xlink" x="0px" y="0px"
	 viewBox="0 0 1009 323.3" style="enable-background:new 0 0 1009 323.3;" xml:space="preserve">
<style type="text/css">
	.st0{filter:url(#Adobe_OpacityMaskFilter);}
	.st1{fill-rule:evenodd;clip-rule:evenodd;fill:#FFFFFF;}
	.st2{mask:url(#mask-2_1_);fill-rule:evenodd;clip-rule:evenodd;fill:#4D4D4D;}
	.st3{fill-rule:evenodd;clip-rule:evenodd;fill:#4D4D4D;}
	.st4{filter:url(#Adobe_OpacityMaskFilter_1_);}
	.st5{mask:url(#mask-4_1_);fill-rule:evenodd;clip-rule:evenodd;fill:#007DCC;}
	.st6{filter:url(#Adobe_OpacityMaskFilter_2_);}
	.st7{mask:url(#mask-6_1_);fill-rule:evenodd;clip-rule:evenodd;fill:#4D4D4D;}
</style>
<g id="email">
	<g id="SS_mail_reset-EN" transform="translate(-430.000000, -16.000000)">
		<g id="Group-20" transform="translate(430.000000, 16.000000)">
			<g id="Group-3" transform="translate(0.000000, 5.000000)">
				<g id="Clip-2">
				</g>
				<defs>
					<filter id="Adobe_OpacityMaskFilter" filterUnits="userSpaceOnUse" x="0" y="30.2" width="211" height="220.7">
						<feColorMatrix  type="matrix" values="1 0 0 0 0  0 1 0 0 0  0 0 1 0 0  0 0 0 1 0"/>
					</filter>
				</defs>
				<mask maskUnits="userSpaceOnUse" x="0" y="30.2" width="211" height="220.7" id="mask-2_1_">
					<g class="st0">
						<polygon id="path-1_1_" class="st1" points="0,30.2 211,30.2 211,250.9 0,250.9 						"/>
					</g>
				</mask>
				<path id="Fill-1" class="st2" d="M85.1,250.9c-16.2,0.2-32.4-1.3-48.2-4.5c-12.7-2.6-25.1-6.6-36.8-12l10.9-51.2h6
					c9.9,9.1,21.6,16.1,34.3,20.6c13.5,5.1,27.9,7.6,42.3,7.5c15.4,0,26.9-2,34.3-6.5c6.8-3.3,11.1-10.4,10.9-18
					c0.2-2.7-0.5-5.3-2-7.5c-1.8-2.6-4.2-4.9-7-6.5c-4.4-2.4-9.1-4.5-13.9-6c-6-2-13.4-4.5-22.9-7c-9.5-2.6-18.8-5.8-27.9-9.5
					c-7.4-3.2-14.4-7.2-20.9-12c-5.5-4.2-10-9.7-12.9-16c-3.2-6.7-4.7-14.1-4.5-21.6c0-21.6,9.5-38.1,27.9-51.2
					c18.4-13,44.3-19.1,76.6-19.1c14.9,0,29.7,1.4,44.3,4c12.2,2,24,5.6,35.3,10.5l-10.5,49.2h-6c-8.5-7.7-18.5-13.5-29.4-17.1
					c-12.6-4.7-25.9-7.1-39.3-7c-13.9,0-24.9,2-32.3,6c-7.5,4-11.5,9.5-11.5,17.1c-0.1,2.9,0.4,5.8,1.5,8.5c1.7,2.8,4.1,5,7,6.5
					c4.5,2.6,9.4,4.7,14.4,6c6.4,2,13.9,4.5,22.9,7c23.4,6.5,40.3,14,50.8,22.6c10.5,8.5,14.9,20.1,14.9,34.6
					c0.1,11.4-2.8,22.7-8.4,32.6c-5.4,9.5-13.3,17.4-22.9,22.6c-10.7,6.3-22.2,10.9-34.3,13.5C113.8,249.6,99.4,250.9,85.1,250.9"/>
			</g>
			<polygon id="Fill-4" class="st3" points="292.6,90.8 254.4,249.2 201.2,249.2 239.4,90.8 			"/>
			<polygon id="Fill-6" class="st3" points="377.9,23.7 326.6,249.2 274.3,249.2 326.1,23.7 			"/>
			<path id="Fill-8" class="st3" d="M480.8,201.1c4.5-6.8,7.9-14.3,10.2-22.1c2.4-9.5,3.6-19.3,3.6-29.1c0-10-2-17.6-6.6-22.6
				c-4.6-5.5-11.2-8-20.9-8c-6.9,0-13.6,1.9-19.4,5.5c-6,3.8-11.1,9-14.8,15c-4.3,6.8-7.5,14.3-9.2,22.1c-2.2,8.9-3.4,18-3.5,27.1
				c0,11,2.5,18.6,7.6,23.6c5.6,4.8,12.9,7.3,20.4,7c6.4,0,12.8-1.7,18.3-5C472.4,211.4,477.3,206.7,480.8,201.1 M548.6,148.9
				c0.1,14.4-2.5,28.7-7.6,42.2c-4.7,12.5-12,24-21.4,33.6c-9.4,9.8-20.9,17.6-33.6,22.6c-14.2,5.7-29.5,8.5-44.8,8
				c-24.4,0-42.8-5.5-56-17c-12.8-11.6-19.4-27.1-19.4-47.7c0-13.9,2.4-27.6,7.1-40.6c4.7-12.7,12-24.3,21.4-34.1
				c9.5-9.7,20.9-17.4,33.6-22.6c14.2-5.7,29.4-8.7,44.8-8.5c24.4,0,42.8,5.5,56,17.1C542,113.3,548.6,128.8,548.6,148.9"/>
			<g id="Group-12" transform="translate(38.000000, 0.000000)">
				<g id="Clip-11">
				</g>
				<defs>
					<filter id="Adobe_OpacityMaskFilter_1_" filterUnits="userSpaceOnUse" x="194.7" y="0.1" width="62.1" height="82.2">
						<feColorMatrix  type="matrix" values="1 0 0 0 0  0 1 0 0 0  0 0 1 0 0  0 0 0 1 0"/>
					</filter>
				</defs>
				<mask maskUnits="userSpaceOnUse" x="194.7" y="0.1" width="62.1" height="82.2" id="mask-4_1_">
					<g class="st4">
						<polygon id="path-3_1_" class="st1" points="194.7,0.1 256.9,0.1 256.9,82.3 194.7,82.3 						"/>
					</g>
				</mask>
				<path id="Fill-10" class="st5" d="M247.1,31.9c-6.6-8.6-18.8-17.1-35.6-24.7c-6.1-2.5-11.2-5.1-15.2-7.1c-1.1,5-1.6,10-1.5,15.1
					c-0.2,8.6,1.4,17.2,4.6,25.2c3.4,7.3,8.2,13.8,14.2,19.1c8.9,6.8,18.6,12.6,29,17.1c4.6,2,8.6,4,12.2,5.5c1.5-5.4,2.1-11,2-16.6
					C257.6,53.6,254.2,41.7,247.1,31.9"/>
			</g>
			<path id="Fill-13" class="st3" d="M620.1,255.3c-13.6,0.1-27.1-1.4-40.4-4.5c-12.9-3.1-25.4-7.6-37.3-13.5l7.1-32.5h2.1
				c9.8,8.9,21.5,15.8,34.2,20c12.6,4.5,25.9,6.8,39.3,7c20.4,0,36.2-4,47.5-12c10.4-6.7,16.6-18.3,16.3-30.5c0.2-6-2-12-6.1-16.5
				c-4.7-4.8-10.7-8.1-17.4-9.5c-6.1-1.5-13.8-3.5-22.5-5c-8.7-1.5-16.8-3-25-5c-15.3-3.5-27.1-9-35.2-17
				c-8.1-7.9-12.6-18.8-12.2-30c0-20,8.7-37,26-50.5c17.4-13.5,40.3-20,67.9-20c13.9-0.1,27.8,1.4,41.3,4.5c11,2.4,21.6,6.1,31.7,11
				l-6.6,30.5h-2.1c-8.7-7.2-18.8-12.6-29.6-16c-13-4.5-26.6-6.6-40.3-6.5c-17.9,0-31.7,4-42.4,11.5c-10.1,6.3-16,17.3-15.8,29
				c-0.1,6,1.9,11.8,5.6,16.5c3.6,5,10.7,8.5,20.4,10.5c6.1,1.5,14.3,3,24.5,5c10.2,2,18.9,4,26,6c13.8,3.5,24,9,31.2,16.5
				c7.1,7.4,11,17.3,10.7,27.5c-0.2,9.7-2.6,19.3-7.2,28c-4.7,9.1-11.3,17.1-19.4,23.5c-9.3,7.2-19.9,12.8-31.2,16.5
				C648,253.7,634.1,255.6,620.1,255.3"/>
			<polygon id="Fill-15" class="st3" points="743.3,310.2 713.1,310.2 760.6,241.6 731.5,90.8 759.6,90.8 782.6,210.3 860.3,90.8 
				889.9,90.8 			"/>
			<g id="Group-19" transform="translate(140.000000, 14.000000)">
				<g id="Clip-18">
				</g>
				<defs>
					<filter id="Adobe_OpacityMaskFilter_2_" filterUnits="userSpaceOnUse" x="713.8" y="71.3" width="147.2" height="170.5">
						<feColorMatrix  type="matrix" values="1 0 0 0 0  0 1 0 0 0  0 0 1 0 0  0 0 0 1 0"/>
					</filter>
				</defs>
				<mask maskUnits="userSpaceOnUse" x="713.8" y="71.3" width="147.2" height="170.5" id="mask-6_1_">
					<g class="st6">
						<polygon id="path-5_1_" class="st1" points="713.8,71.3 860.9,71.3 860.9,241.8 713.8,241.8 						"/>
					</g>
				</mask>
				<path id="Fill-17" class="st7" d="M769.9,241.8c-11,0.2-21.9-1.4-32.4-4.6c-8.2-2.5-16.2-5.7-23.8-9.7l6.1-29.1h1.5
					c2,1.5,4.5,3.6,8.1,6.1c3.8,2.8,7.9,5.2,12.1,7.1c5,2.4,10.3,4.2,15.7,5.6c6.1,1.7,12.4,2.5,18.7,2.6c13.7,0,24.3-2.6,31.8-7.7
					c7.6-4.8,12.1-13.4,11.6-22.5c0.2-4.7-2.1-9.2-6.1-11.8c-5.3-3.2-11.1-5.5-17.2-6.6c-3.5-1-8.1-2-13.6-3.1
					c-5.1-1-10.6-2.5-15.7-3.6c-11.1-3.1-19.7-7.7-24.8-13.8c-5.4-6-8.4-13.9-8.1-22c-0.1-7.5,1.6-14.8,5-21.4
					c3.5-7.1,8.5-13.4,14.7-18.4c6.9-5.6,14.8-10,23.3-12.8c10.3-3.3,21.1-5.1,31.9-5.1c9.7-0.1,19.4,1.1,28.8,3.6
					c8.1,2,16,5.1,23.3,9.2l-5.6,28.1h-1.5c-1.5-1-4.1-3.1-7.1-5.1c-3-2-7.1-4.1-11.6-6.6c-4.7-2.2-9.6-3.8-14.7-4.6
					c-5.6-1.5-11.4-2.2-17.2-2.1c-12.1,0-21.8,2.6-29.3,7.7c-7.1,4.5-11.3,12.5-11.1,20.9c0.1,4.7,2.1,9.1,5.6,12.3
					c5,3.7,10.6,6.3,16.7,7.7c4.6,1,9.6,2,14.7,3.1c5.1,1,10.1,2,14.7,3.1c11.1,3.1,19.7,7.1,25.3,13.3c5.7,6,8.8,14.1,8.6,22.4
					c0.1,7.6-1.6,15.2-5,21.9c-3.6,7.2-8.8,13.5-15.2,18.4c-7.4,5.8-15.8,10.2-24.8,12.8C792.4,240.3,781.2,241.9,769.9,241.8"/>
			</g>
		</g>
	</g>
</g>
</svg>
